<svg width="1000" height="1000" viewBox="0 0 1000 1000" fill="none" xmlns="http://www.w3.org/2000/svg">
<rect width="1000" height="1000" fill=""/>
<path d="M112.164 94.9569C108.351 94.9569 104.695 96.4763 101.999 99.1809C99.3029 101.886 97.7884 105.554 97.7884 109.379C97.7884 113.204 99.3029 116.872 101.999 119.577C104.695 122.281 108.351 123.801 112.164 123.801C152.316 123.754 191.038 138.753 220.741 165.858C250.444 192.963 268.987 230.22 272.735 270.327C233.298 273.737 196.573 291.869 169.822 321.137C143.07 350.406 128.24 388.68 128.264 428.391C128.264 516.076 198.99 529.344 286.391 529.344C339.004 529.344 385.58 524.527 414.33 501.567C414.445 514.114 417.205 526.056 422.093 536.814L317.039 612.096C288.634 588.675 250.913 577.426 213.969 577.426C172.971 577.426 130.995 591.3 101.986 620.403C100.615 621.736 99.5222 623.329 98.7714 625.089C98.0206 626.85 97.6268 628.743 97.6129 630.658C97.5991 632.573 97.9655 634.471 98.6908 636.242C99.4161 638.014 100.486 639.622 101.837 640.974C103.189 642.327 104.795 643.395 106.563 644.118C108.331 644.84 110.224 645.203 112.133 645.183C114.041 645.164 115.927 644.764 117.68 644.005C119.432 643.247 121.017 642.146 122.341 640.767C144.795 618.24 178.865 606.27 213.969 606.27C249.102 606.27 283.257 618.211 305.855 640.796C308.262 643.207 311.443 644.684 314.833 644.964C318.224 645.244 321.603 644.309 324.37 642.325L438.164 560.726C439.889 562.543 441.701 564.302 443.598 566.004L246.6 882.247C245.6 883.853 244.925 885.641 244.613 887.509C244.301 889.377 244.359 891.288 244.784 893.134C245.208 894.979 245.991 896.722 247.087 898.264C248.183 899.806 249.571 901.117 251.172 902.12C252.773 903.124 254.555 903.802 256.417 904.115C258.279 904.427 260.184 904.369 262.023 903.943C263.862 903.517 265.6 902.732 267.137 901.633C268.674 900.533 269.98 899.14 270.981 897.534L467.95 581.262C469.876 582.07 471.86 582.82 473.844 583.483V889.891C473.844 893.716 475.358 897.384 478.054 900.088C480.75 902.793 484.406 904.313 488.219 904.313C492.031 904.313 495.688 902.793 498.384 900.088C501.08 897.384 502.594 893.716 502.594 889.891V587.897C516.068 587.681 529.306 584.319 541.259 578.075C553.211 571.832 563.549 562.879 571.451 551.928C560.785 589.022 559.52 636.008 559.52 687.119C559.52 807.109 566.42 904.313 686.022 904.313C805.623 904.313 902.512 807.109 902.512 687.119C902.512 567.129 805.623 469.926 686.022 469.926C635.22 469.926 604.773 487.463 586.517 516.826C589.831 499.068 587.56 480.716 580.018 464.311C572.476 447.906 560.037 434.259 544.422 425.26C528.807 416.262 510.79 412.356 492.865 414.085C474.94 415.814 457.994 423.091 444.374 434.909C446.053 394.384 432.188 354.754 405.63 324.173C379.073 293.591 341.843 274.383 301.6 270.5C297.857 222.685 276.27 178.048 241.152 145.506C206.034 112.963 159.97 94.9113 112.164 94.9569ZM228.603 342.436C240.39 342.436 250.166 351.955 250.166 364.069V389.452C250.166 395.189 247.894 400.691 243.85 404.748C239.806 408.805 234.322 411.084 228.603 411.084C222.884 411.084 217.399 408.805 213.356 404.748C209.312 400.691 207.04 395.189 207.04 389.452V364.069C207.327 352.243 216.815 342.436 228.603 342.436Z" fill="#E39945"/>
</svg>
